<?xml version="1.0" encoding="utf-8"?>
<!-- Generator: Adobe Illustrator 21.1.0, SVG Export Plug-In . SVG Version: 6.00 Build 0)  -->
<svg version="1.1" id="Lager_1" xmlns="http://www.w3.org/2000/svg" xmlns:xlink="http://www.w3.org/1999/xlink" x="0px" y="0px"
	 viewBox="0 0 370 370" style="enable-background:new 0 0 370 370;" xml:space="preserve">
<style type="text/css">
	.st0{fill:#00D790;}
</style>
<path id="path14" class="st0" d="M235.9,200.1L175,210.7c0,0-1.9-25.4,16.2-58l50.6-3.7C241.8,149,213.4,179,235.9,200.1z
	 M216.7,273.5h-46.6c0,0-15.1-16.6-12.8-53.8l83-13.6C240.3,206.1,237.1,237.2,216.7,273.5L216.7,273.5z M152.7,213.4l-29.7-12
	l30-78.6h1.1L152.7,213.4z M192.9,95.7H217c0,0-5.1,23.9-2.5,49.3l-49.2,6.8C165.4,151.8,176.8,117.3,192.9,95.7z M184.7,9.9
	C88.2,9.9,10,88.1,10,184.6c0,96.5,78.2,174.7,174.7,174.7c96.5,0,174.7-78.2,174.7-174.7C359.4,88.1,281.2,9.9,184.7,9.9"/>
</svg>
