<?xml version="1.0" encoding="UTF-8" standalone="no"?>
<svg
   xmlns:dc="http://purl.org/dc/elements/1.1/"
   xmlns:cc="http://creativecommons.org/ns#"
   xmlns:rdf="http://www.w3.org/1999/02/22-rdf-syntax-ns#"
   xmlns:svg="http://www.w3.org/2000/svg"
   xmlns="http://www.w3.org/2000/svg"
   id="svg2"
   version="1.1"
   xml:space="preserve"
   width="1413.3125"
   height="380"
   viewBox="0 0 1413.3125 380"><metadata
     id="metadata8"><rdf:RDF><cc:Work
         rdf:about=""><dc:format>image/svg+xml</dc:format><dc:type
           rdf:resource="http://purl.org/dc/dcmitype/StillImage" /><dc:title></dc:title></cc:Work></rdf:RDF></metadata><defs
     id="defs6" /><g
     id="g10"
     transform="matrix(1.25,0,0,-1.25,0,530)"><g
       id="g12"
       transform="scale(0.1,0.1)"><path
         d="m 1894.92,2623.54 -486.81,-85.32 c 0,0 -15.57,203.49 129.6,464.13 l 404.73,29.52 c 0,0 -227.25,-239.76 -47.52,-408.33 z m -153.09,-587.61 -372.96,0 c 0,0 -120.6,132.75 -102.69,430.11 l 664.11,108.99 c 0,0 -25.2,-248.94 -188.46,-539.1 z m -512.01,480.96 -237.328,95.94 240.208,628.83 8.73,0 -11.61,-724.77 z m 321.21,941.31 193.23,0 c 0,0 -41.13,-191.16 -19.89,-394.38 l -393.3,-54.27 c 0,0 91.08,275.67 219.96,448.65 z m -65.61,686.7 C 713.402,4144.9 87.6328,3519.04 87.6328,2747.02 c 0,-771.93 625.7692,-1397.79 1397.7872,-1397.79 772.02,0 1397.79,625.86 1397.79,1397.79 0,772.02 -625.77,1397.88 -1397.79,1397.88"
         style="fill:#00d790;fill-opacity:1;fill-rule:nonzero;stroke:none"
         id="path14" /><path
         d="m 3858.62,2056.08 0,1315.97 -286,0 0,84.01 661.99,0 0,-84.01 -284,0 0,-1315.97 -91.99,0"
         style="fill:#00d790;fill-opacity:1;fill-rule:nonzero;stroke:none"
         id="path16" /><path
         d="m 4446.59,2714.07 0,-657.99 -92,0 0,1399.98 92,0 0,-657.99 435.99,0 0,657.99 94,0 0,-1399.98 -94,0 0,657.99 -435.99,0"
         style="fill:#00d790;fill-opacity:1;fill-rule:nonzero;stroke:none"
         id="path18" /><path
         d="m 5726.56,3118.06 0,-30 -88,0 0,36 c 0,147.99 -55.99,259.99 -208,259.99 -152,0 -207.99,-110 -207.99,-257.99 0,-340 505.99,-346 505.99,-731.99 0,-201.99 -88,-350 -302,-350 -213.99,0 -301.99,148.01 -301.99,350 l 0,71.99 88,0 0,-77.99 c 0,-150 57.99,-258.01 212,-258.01 153.99,0 211.99,108.01 211.99,258.01 0,336 -506,341.99 -506,731.99 0,210 92.01,346 298,348 212,0 298,-148 298,-350"
         style="fill:#00d790;fill-opacity:1;fill-rule:nonzero;stroke:none"
         id="path20" /><path
         d="m 6396.56,2500.06 211.99,0 -105.99,708 -106,-708 z m 501.99,-443.98 -222,0 -38,253.98 -270,0 -38,-253.98 -201.99,0 224,1399.98 321.99,0 224,-1399.98"
         style="fill:#00d790;fill-opacity:1;fill-rule:nonzero;stroke:none"
         id="path22" /><path
         d="m 7220.55,3256.06 0,-430 86,0 c 81.99,0 131.99,36 131.99,148.01 l 0,137.99 c 0,100 -33.99,144 -111.99,144 l -106,0 z m 239.99,-1199.98 c -12,36 -20,57.99 -20,171.99 l 0,220 c 0,130 -43.99,177.99 -143.99,177.99 l -76,0 0,-569.98 -220,0 0,1399.98 332,0 c 227.99,0 325.99,-106 325.99,-322 l 0,-109.99 c 0,-144.01 -45.99,-238.01 -143.99,-284.01 109.99,-45.99 145.99,-151.99 145.99,-297.98 l 0,-216 c 0,-68.01 2.01,-118.01 24,-170 l -224,0"
         style="fill:#00d790;fill-opacity:1;fill-rule:nonzero;stroke:none"
         id="path24" /><path
         d="m 8270.53,2462.08 149.99,993.98 306,0 0,-1399.98 -208,0 0,1003.98 -151.99,-1003.98 -208,0 -163.99,989.98 0,-989.98 -192,0 0,1399.98 305.99,0 162,-993.98"
         style="fill:#00d790;fill-opacity:1;fill-rule:nonzero;stroke:none"
         id="path26" /><path
         d="m 9096.51,2500.06 211.99,0 -105.99,708 -106,-708 z m 501.99,-443.98 -222,0 -38,253.98 -270,0 -38,-253.98 -201.99,0 224,1399.98 321.99,0 224,-1399.98"
         style="fill:#00d790;fill-opacity:1;fill-rule:nonzero;stroke:none"
         id="path28" /><path
         d="m 9920.5,3256.06 0,-999.98 124,0 c 70,0 112,36 112,136 l 0,727.98 c 0,100 -42,136 -112,136 l -124,0 z m -220,200 348,0 c 220,0 328,-122.01 328,-346 l 0,-707.98 c 0,-224.01 -108,-346 -328,-346 l -348,0 0,1399.98"
         style="fill:#00d790;fill-opacity:1;fill-rule:nonzero;stroke:none"
         id="path30" /><path
         d="m 10724.5,2500.06 212,0 -106,708 -106,-708 z m 502,-443.98 -222,0 -38,253.98 -270,0 -38,-253.98 -202,0 224,1399.98 322,0 224,-1399.98"
         style="fill:#00d790;fill-opacity:1;fill-rule:nonzero;stroke:none"
         id="path32" /></g></g></svg>