<svg xmlns="http://www.w3.org/2000/svg" width="509" height="508" viewBox="0 0 509 508" version="1.1"><path d="" stroke="none" fill="#04d48c" fill-rule="evenodd"/><path d="M 264.660 128.250 C 255.194 140.852, 239.201 173.044, 229.972 198.075 C 227.043 206.020, 227.042 206.028, 229.270 205.523 C 230.496 205.245, 244.775 203.222, 261 201.027 C 277.225 198.832, 291.853 196.804, 293.507 196.519 L 296.514 196.001 296.608 174.750 C 296.691 155.882, 298.564 133.342, 300.595 126.750 C 301.094 125.131, 299.863 125, 284.118 125 L 267.102 125 264.660 128.250 M 208.085 167.250 C 180.281 239.523, 166.107 277.496, 166.722 278.067 C 167.622 278.903, 207.269 295.085, 207.557 294.734 C 207.663 294.605, 208.037 271.775, 208.387 244 C 208.738 216.225, 209.305 187.088, 209.647 179.250 C 210.250 165.424, 209.881 162.582, 208.085 167.250 M 299.500 205.547 C 283.550 206.805, 269.074 207.872, 267.331 207.918 C 264.324 207.996, 263.907 208.524, 259.170 218.250 C 252.866 231.192, 246.572 249.378, 243.960 262.194 C 241.628 273.639, 240.227 291, 241.636 291 C 242.809 291, 321.658 277.240, 324.808 276.486 L 327.115 275.933 324.036 272.046 C 318.160 264.626, 316.653 259.661, 316.741 248 C 316.801 240.059, 317.329 236.062, 318.908 231.600 C 321.552 224.127, 326.839 214.648, 332.019 208.095 L 336.047 203 332.273 203.129 C 330.198 203.200, 315.450 204.288, 299.500 205.547 M 273.250 295.838 L 215 305.466 215 316.355 C 215 340.858, 221.754 366.558, 231.661 379.750 L 234.102 383 267.358 383 L 300.615 383 304.738 375.250 C 317.450 351.355, 329.101 318.075, 333.443 293.250 C 334.585 286.726, 334.551 286.011, 333.106 286.105 C 332.223 286.164, 305.288 290.543, 273.250 295.838 M 240.264 507.718 C 241.784 507.947, 244.034 507.941, 245.264 507.704 C 246.494 507.467, 245.250 507.279, 242.500 507.286 C 239.750 507.294, 238.744 507.488, 240.264 507.718 M 264.264 507.718 C 265.784 507.947, 268.034 507.941, 269.264 507.704 C 270.494 507.467, 269.250 507.279, 266.500 507.286 C 263.750 507.294, 262.744 507.488, 264.264 507.718" stroke="none" fill="#04d494" fill-rule="evenodd"/></svg>